<?xml version="1.0"?>
<svg xmlns="http://www.w3.org/2000/svg" viewBox="0 0 64 64" width="512px" height="512px" class=""><g><title>presentation-Analytics-powerpoint-report-Business</title><g id="FillOutline"><path d="M29,9V7a3,3,0,0,1,3-3h0a3,3,0,0,1,3,3V9Z" style="fill:#564D42" data-original="#754C24" class="" data-old_color="#754C24"/><rect x="16" y="8" width="32" height="44" style="fill:#897E5B" data-original="#A67C52" class="" data-old_color="#A67C52"/><rect x="7" y="12" width="50" height="36" style="fill:#F0F0F0" data-original="#E6E6E6" class="active-path" data-old_color="#EFEEEE"/><rect x="16" y="37" width="5" height="6" style="fill:#BCA045" data-original="#80CAEC" class="" data-old_color="#80CAEC"/><rect x="25" y="28" width="5" height="15" style="fill:#336063" data-original="#29ABE2" class="" data-old_color="#29ABE2"/><rect x="34" y="33" width="5" height="10" style="fill:#BCA045" data-original="#80CAEC" class="" data-old_color="#80CAEC"/><rect x="43" y="24" width="5" height="19" style="fill:#336063" data-original="#29ABE2" class="" data-old_color="#29ABE2"/><path d="M15,8v3H7a1,1,0,0,0-1,1V48a1,1,0,0,0,1,1h8v3a1,1,0,0,0,1,1H31v2.446l-7.53,4.706,1.06,1.7L31,57.8V62h2V57.8l6.47,4.044,1.06-1.7L33,55.446V53H48a1,1,0,0,0,1-1V49h8a1,1,0,0,0,1-1V12a1,1,0,0,0-1-1H49V8a1,1,0,0,0-1-1H36a4,4,0,0,0-8,0H16A1,1,0,0,0,15,8ZM47,51H17V49H47Zm9-4H8V13H56ZM32,5a2,2,0,0,1,2,2H30A2,2,0,0,1,32,5ZM17,9H47v2H17Z" data-original="#000000" class="" style="fill:#000000" data-old_color="#897E5B"/><path d="M49,24a1,1,0,0,0-1-1H43a1,1,0,0,0-1,1V42H40V33a1,1,0,0,0-1-1H34a1,1,0,0,0-1,1v9H31V28a1,1,0,0,0-1-1H25a1,1,0,0,0-1,1V42H22V37a1,1,0,0,0-1-1H16a1,1,0,0,0-1,1v5H11v2H53V42H49ZM17,42V38h3v4Zm9,0V29h3V42Zm9,0V34h3v8Zm9,0V25h3V42Z" data-original="#000000" class="" style="fill:#000000" data-old_color="#897E5B"/><rect x="14" y="16" width="2" height="2" data-original="#000000" class="" style="fill:#000000" data-old_color="#897E5B"/><rect x="51" y="16" width="2" height="2" data-original="#000000" class="" style="fill:#000000" data-old_color="#897E5B"/><rect x="47" y="16" width="2" height="2" data-original="#000000" class="" style="fill:#000000" data-old_color="#897E5B"/><rect x="18" y="16" width="14" height="2" data-original="#000000" class="" style="fill:#000000" data-old_color="#897E5B"/><rect x="11" y="20" width="17" height="2" data-original="#000000" class="" style="fill:#000000" data-old_color="#897E5B"/><rect x="2" y="15" width="2" height="22" data-original="#000000" class="" style="fill:#000000" data-old_color="#897E5B"/><rect x="2" y="39" width="2" height="2" data-original="#000000" class="" style="fill:#000000" data-old_color="#897E5B"/><rect x="60" y="28" width="2" height="18" data-original="#000000" class="" style="fill:#000000" data-old_color="#897E5B"/></g></g> </svg>
