<?xml version="1.0" encoding="utf-8"?>
<!-- Generator: Adobe Illustrator 22.1.0, SVG Export Plug-In . SVG Version: 6.00 Build 0)  -->
<svg version="1.1" id="interactive-map" xmlns="http://www.w3.org/2000/svg" xmlns:xlink="http://www.w3.org/1999/xlink" x="0px" y="0px"
	 viewBox="0 0 973.1 401.9" style="enable-background:new 0 0 973.1 401.9;" xml:space="preserve">
	<style type="text/css">
		.map-style{
		fill: #dddddd;
		stroke: #000;
		}
		.map-style:hover{
		cursor: pointer;
		fill: #c18711 !important;
		}
		.map-style.selected{
		fill: #053e72;
		}

	</style>
	<polygon id="Algeria" class="map-style" points="294.3,26.8 285.3,26.8 280.8,23.3 277.3,26.8 266.8,23.3 255.8,30.3 249.8,26.8
		229.3,26.8 221.3,30.3 195.8,34.8 189.3,42.8 177.3,42.8 171.3,48.8 158.3,52.8 160,65.2 162,82.2 163.3,92.5 157.3,92.5
		151.3,92.5 145.8,98.1 138,97.5 132.6,104.8 132.6,104.8 132,113.8 128.7,111.9 116.6,119.8 112.6,124.1 98.6,124.1 84.6,135.6
		81.3,135.6 67.8,151.9 73.8,168.6 197.3,259.8 198,265.5 203,267.5 207,273.2 212.6,273.8 216.6,277.5 224.8,279.8 225.4,291.5
		238,289.5 258,285.2 291,255.5 338.3,225.2 335.3,216.2 327,211.2 318.6,209.8 313.2,205.2 313,197.5 310.6,192.5 306.3,184.5
		311.6,178.5 309.6,167.5 312.3,159.8 310.6,153.2 311,140.5 305.3,126.3 305.6,120.3 301.6,97.8 292,91.5 290.6,86.2 283,75.2
		281.3,68.2 291,57.2 292.3,53.2 291.6,45.8 291.3,38.2 291.3,32.8 "/>
	<polygon id="Morocco" class="map-style" points="15.3,162.8 71.8,162.8 71.8,147.8 86.8,137.8 92.8,133.8 99.3,133.8 102.8,130.8
		113.3,130.8 122.3,120.8 129.8,117.8 133.8,114.3 138.8,114.3 136.3,106.8 138.8,102.8 144.8,102.8 149.3,96.3 168.3,96.3
		171.3,90.3 167.3,87.3 165.8,81.8 164.3,72.3 163.8,61.3 163.3,58.8 158.3,52.8 149.6,50.6 131.8,52.8 119.8,42.8 112.8,42.8
		109.8,52.3 106.3,62.1 102.6,67.1 93.3,73.3 79.1,80.3 69.8,90.1 64.8,101.3 61.1,107.3 59.3,118.9 62.3,121.6 58.3,132.8
		58.3,132.8 36.3,155.1 16.8,158.8 "/>
	<polygon id="Libya" class="map-style" points="331.8,81.3 331,92.8 325.8,95.8 316.1,104.6 315.9,110.7 316.6,116.8 312.8,120.8
		305.4,123.7 305.4,127.2 310.2,138.5 310.9,154.3 312.3,159.8 309.6,166.7 309.9,174 311.6,178.5 306.3,184.5 313,197.5
		313.3,206.2 318.6,209.8 335.3,216.2 338.3,225.2 359.6,229.2 370,237.5 393.3,226.2 496.6,282.5 496.6,276.8 510,277.2
		506.6,139.5 503.3,127.2 505.3,117.2 503.6,107.2 506.6,101.8 504,99.5 496.3,100.8 489,97.2 481.3,96.2 480.3,90.2 470,86.5
		460.6,86.2 451.3,89.8 442.6,96.8 441.6,105.5 445,112.8 440.1,122.5 427,124.1 417.6,116.2 409,112.2 392.9,110.9 386,106.8
		383.6,103.5 381.3,96.5 378.6,92.5 373.3,92.2 367.6,89.2 356,86.5 346.3,88.2 "/>
	<polygon id="Tunisia" class="map-style" points="305.4,123.7 300.1,100.5 292.8,92.8 291,91.3 285.1,81.5 280.5,68 290.1,56.2 291.3,32.8
		294.3,26.8 307.3,20.3 314.3,21.8 317.3,28.1 323.8,25.3 326.1,25.1 326.1,28.8 319.6,34.3 318.3,36.3 319.8,40.8 326.1,45.3
		326.1,54.3 318.1,61.8 313.6,67.1 314.8,72.2 321.1,74.6 323.8,70.8 326.1,71.1 326.1,76.1 328.8,80.3 331.8,81.3 331.8,85.8
		331.8,90.1 331.8,92.3 325.8,95.8 319.8,101.3 316.1,104.6 315.8,109.8 316.6,116.8 312.8,120.8 "/>
	<polygon id="Egypt" class="map-style" points="506.6,101.8 503.6,107.2 505.3,117.2 503.3,127.2 506.6,139.5 509.2,246.2 617.3,246.2
		626.6,250.2 629,244.2 636.3,242.5 639.6,235.2 643.6,234.8 647,231.2 645.6,226.8 645,219.2 647,217.2 623.3,177.5 623,174.2
		618,166.5 617.3,159.5 606.3,148.2 603,138.8 601,134.5 603.6,128.8 608.3,138.5 613,144.2 612.6,148.5 624,160.5 627,160.5
		629,154.5 633,135.2 623.3,109.5 615,113.2 608.8,113.2 602.3,112.8 599.3,111.2 597,113.7 593.2,111.1 591.8,107.7 587,106.7
		583,105.5 578.6,108.2 574.1,107.5 567.3,113.2 559.3,116.8 554.8,116.2 550.5,113.8 543,111.8 537.3,110.5 533.6,107.8
		522.6,107.2 "/>
	<polygon id="Palestine" class="map-style" points="633,135.2 631.5,132.5 630,127.5 627.6,120.9 625.6,116.5 623.3,109.5 625.8,106.7
		627.8,103.1 631.1,90.4 632.3,86.1 633.4,82.8 638.6,77.3 638.6,86.7 638.6,96.4 638.6,105.9 637.6,117.4 636.2,121.2 635.7,125.4
		635.2,130.4 "/>
	<polygon id="syria" class="map-style" points="640.9,58.2 640.1,48.8 638.6,46.5 638.6,40.5 640.9,40.5 643.9,39.8 644.3,36.5 647.5,35.7
		647.1,32.5 647,27.2 649.9,27.3 653.1,30.1 656.7,29.3 664.4,26.1 669.5,26.3 673.6,29.2 684.1,28.4 695.6,23.2 709.6,23.2
		713.6,19.8 717.3,19.8 717.3,24.5 712,28.8 706.3,31.5 704.6,36.3 707,40.2 706.6,47.5 706.3,59.2 698.3,66.5 677.9,78.2
		665.3,85.8 655.3,92.5 651.3,92.5 644.6,87.5 638.6,88.1 638.6,78.8 644.2,72.5 647.2,71.2 648,70.5 648.4,68.6 649.9,65.5
		649.8,63.3 647.6,61 646.6,58.3 "/>
	<polygon id="Lebanon" class="map-style" points="640.9,58.2 646.6,58.3 647.6,61 649.8,63.3 649.9,65.5 648,70.5 647.2,71.2 644.2,72.5
		642.4,75 640.1,78.3 638.6,78.8 637.8,79.2 633.4,82.8 633.4,78.7 634.8,75.5 635.9,72.5 636.6,70 637.9,69.3 637.8,65.1
		639.3,63.1 640.9,62 "/>
	<polygon id="Jorden" class="map-style" points="638.6,88.1 638.6,106.3 638,112.8 637.6,117.4 636.2,121.2 635.9,123.7 635.1,130
		634.2,132.5 635.1,138.3 643.8,139.2 651.3,139.8 655.6,134.8 660.5,129.7 667.6,128.5 669.6,123.2 673.6,121.2 667.2,113.4
		661.6,106.6 665.3,105.4 669.9,103.9 674.4,102.2 679.7,99.8 685.2,97.5 682.6,92.5 681.3,88.3 679.8,82.5 678.5,77.8 672.7,81.3
		663.6,87 659.7,89.6 655.3,92.5 651.3,92.5 649.9,91.5 647,88.7 644.6,87.5 "/>
	<polyline id="Saudi" class="map-style" points="710.3,273.2 719.3,279.8 722.6,288.2 725.3,295.5 728.3,299.8 732.3,306.2 736.6,309.2
		739.6,313.5 743.3,319.8 748.3,328.5 751.3,325.8 751.3,317.2 754.3,312.8 761.3,315.6 775.1,313.8 786.3,316.1 798.6,316.5
		804,320.8 814,305.8 830.6,296.5 867.3,290.5 903.3,275.8 911.3,246.5 903.3,237.2 882.6,236.1 868.8,233.1 856.1,218.8
		854.6,214.1 851.6,209.1 845.3,208.3 834.3,190.3 833.3,182.8 829,173.8 820.6,165.8 814.1,163.1 813.6,158.8 809.1,150.2
		798,150.5 794.9,144.1 779,142.2 760,141.2 730,117.8 703.3,100.5 684.6,97.5 673,102.8 661.6,106.6 673.6,121.2 673.6,121.2
		669.6,123.2 667.6,128.5 659.9,129.8 651.3,139.8 635.1,138.3 635.1,150.8 633.4,154.8 640.9,156.2 650.3,171.8 661.6,187.2
		661.6,189.8 668,198.5 669,203.8 669.3,206.2 674.2,213 679.3,214.8 686.6,222.5 690,229.2 692.6,234.2 695.6,242.3 695.6,242.3
		694,248.2 695.6,254.8 698.8,262.2 705.2,270.6 "/>
	<polygon id="Iraq" class="map-style" points="761.1,70 761.1,67.6 762.8,64.8 761.1,62.6 761.1,59.2 762.8,59.2 764.6,54.3 766.1,51.1
		768.1,51.1 764.6,45.8 768.1,42.1 761.1,42.1 756.1,38.6 756.1,35.3 750.6,31.8 750.6,27.1 746.6,24.3 746.6,23.1 743.3,23.1
		740.3,23.1 739.3,19.8 734.6,21.1 730.8,21.1 730.8,19.8 727.8,19.8 722.1,19.8 717.3,23.6 714.9,26.5 712.1,28.7 706.7,31.3
		704.6,36.3 707.1,40.6 706.6,50.5 706.4,55.3 706.3,59.2 701.5,63.6 698.6,66.2 678.5,77.8 681.5,88.8 682.6,92.5 685.2,97.5
		690.8,98.5 694.5,99.1 698,99.7 701.1,100.2 703.3,100.5 707.4,103.2 716.1,108.8 734.5,121.4 760,141.2 773.9,141.9 779,142.2
		784.3,142.8 786.3,135.8 788.1,130.3 791.3,126.3 800.6,126.6 805.3,126.1 805.3,124.1 799.1,121.1 799.1,114.1 794.8,112.1
		794.6,100.1 788.6,92.5 783.1,90.3 778.1,85.3 773.6,85.1 769.6,82.3 771.3,78.8 "/>
	<polygon id="Kwuit" class="map-style" points="784.3,142.8 786.3,135.8 788.1,130.3 791.3,126.3 793.4,126.1 797.6,126.5 801.5,126.5
		805.3,126.1 805.9,131.6 805.9,133.6 801.7,133.3 799.9,134.2 799.1,135.9 799.2,137 800.9,137.7 803.1,139.1 804.1,140.8
		805.3,143.4 805.9,145.4 807.4,148.3 809.1,150.2 798,150.5 796.4,147.3 794.9,144.1 794.9,144.1 794.9,144.1 794.9,144.1
		790.7,143.6 "/>
	<polygon id="Bahrain" class="map-style" points="837.9,183.2 837.1,185.3 837.9,187.7 839,189.5 840.3,190.3 841.4,188.6 841.4,185.1
		840.9,183.8 838.7,181.9 "/>
	<polygon id="Qatar" class="map-style" points="847.5,186.1 845.8,188.9 844.8,193.2 844,196.1 844,199.8 845.7,205.4 847.5,207.9
		850.8,207.4 852.9,205.8 853.9,203 854.6,200.1 853.1,197.9 852.4,195.8 852.8,193.7 853.6,191.3 852.9,189.5 851.2,187.8
		850.2,186.6 "/>
	<polygon id="Emirates" class="map-style" points="856.1,218.8 861.5,224.9 868.8,233.1 883.1,236.1 892.7,236.6 897,236.8 897,236.8
		903.3,237.2 905.1,236.2 905.3,234.8 906.1,230.8 907.2,225.9 908.1,222.8 908.1,217.3 913.1,217.3 913.1,215.1 910.3,210.8
		909.2,206.3 911.3,203.8 912.5,205.2 913.8,206.6 916.3,204.7 917.6,203.8 916.2,199.8 915.5,195.4 914.8,193.8 915.4,189.2
		916.2,183.5 914.7,182.7 911.3,184.3 910.7,187.4 908.4,191.5 904.8,195.2 901,200.3 894.9,207.9 892.1,213 888.9,216.3
		884.1,215.7 880.1,215.5 877.4,215.5 872.8,215.5 869.8,214.8 868.1,214.5 866.4,216.5 864.5,218.2 "/>
	<polygon id="Oman" class="map-style" points="911.3,203.8 909.2,206.3 910.3,210.8 913.1,215.1 913.1,217.3 908.1,217.3 908.1,222.8
		906.8,227.1 905.1,236.2 903.3,237.2 911.3,246.5 907.8,259.2 903.3,275.8 888.2,282 871.6,288.2 867.3,290.5 872.6,303.8
		878.6,312.8 880.3,319.6 883.8,325.1 892.3,322.3 897.1,319.6 903.1,320.8 908.1,320.1 909.6,317.8 909.8,311.6 915.1,307.1
		922.6,307.1 926.6,303.8 929.8,294.1 939.6,291.6 942.3,288.3 939.8,279.2 941.1,276.3 942.3,271.3 944.3,267.6 947.3,269.6
		949.8,270.8 951.1,267.1 951.1,263.1 953.6,260.3 956.3,257.1 958.8,253.8 961.6,250.1 965.4,245.6 965.4,239.8 959.6,237.6
		956.3,234.3 954.6,230.1 947.1,223.6 941.1,221.6 932.8,220.3 925.6,216.8 921.1,210.8 917.6,203.8 913.8,206.6 "/>
	<polygon id="Yemen" class="map-style" points="867.3,290.5 846.7,293.9 830.7,295.8 814,305.8 807.9,314.9 804,320.8 799.4,316
		784.6,315.8 780,314.8 775.1,313.8 761.3,315.6 754.3,312.8 751.3,317.2 751.3,320.5 751.3,325.8 748.3,328.5 746.6,338.6
		748.6,348.3 751.3,355.3 751.6,362.8 753.6,368.3 754.8,374.1 757.3,379.6 758.1,383.3 763.1,384.8 767.6,386.1 773.8,383.6
		778.1,383.3 787.8,373.8 795.8,372.1 803.1,373.6 815.6,364.1 822.8,364.1 827.3,362.1 837.8,353.1 846.6,351.1 853.6,348.3
		858.8,347.3 864.1,344.1 870.1,341.8 870.1,332.8 875.3,328.5 883.8,325.1 880.4,319.6 879.1,314.8 878.6,312.8 874.3,306.4
		872.6,303.8 "/>
</svg>
