<?xml version="1.0" encoding="utf-8"?>
<!-- Generator: Adobe Illustrator 22.1.0, SVG Export Plug-In . SVG Version: 6.00 Build 0)  -->
<svg version="1.1" xmlns="http://www.w3.org/2000/svg" xmlns:xlink="http://www.w3.org/1999/xlink" x="0px" y="0px"
	 viewBox="0 0 484 586" style="enable-background:new 0 0 484 586;" xml:space="preserve">
<style type="text/css">
	.st0{display:none;}
	.st1{display:inline;fill:#336063;}
	.st2{opacity:0.75;}
	.st3{fill:#D1E8E3;}
	.st4{fill:#E5D1BD;}
	.st5{fill:#959596;}
	.st6{fill:#162333;}
	.st7{fill:#3B455A;}
	.st8{fill:#FFFFFF;}
	.st9{fill:#EACDB0;}
	.st10{fill:#587BC9;}
	.st11{opacity:0.26;fill:#000909;}
	.st12{fill:#FCFCFC;}
	.st13{opacity:5.000000e-02;fill:#000004;}
	.st14{opacity:0.12;fill:#000100;}
	.st15{fill:#DFE4E8;}
	.st16{opacity:0.47;}
	.st17{fill:#8B9498;}
	.st18{opacity:0.32;fill:#8B9498;}
</style>
<g id="Background" class="st0">
	<rect x="-439" y="-123" class="st1" width="1100" height="800"/>
</g>
<g id="shadow" class="st2">
	<circle class="st3" cx="240.1" cy="296.5" r="227.5"/>
	<circle class="st3" cx="300.4" cy="112.1" r="97.2"/>
	<circle class="st3" cx="391.7" cy="140.3" r="39"/>
</g>
<g id="Object">
	<g>
		<g>
			<g>
				<path class="st4" d="M134.2,171.8c0.3,0,0.6-0.1,0.9,0c2.5,0.5,3.6,2.3,5.9,3.5c1,0.5,3.6-1,3.8,1.4c0.1,0.9,0.1,3.2,0.3,5.1
					c0.3,2.8,2.3,6.2,4.4,8.6c2.8,3.2,5.9,6.5,9.1,9.2c6.8,5.7,14.9,11.3,22.6,15.5c7.4-12.8,22.1-20.7,36.5-19.5
					c1.5,0.1,3.1,0.4,4.3,1.2c1.1,0.7,1.9,1.8,2.5,3c6.6,12.1-4.8,18.1-13.8,23.4c-5.6,3.3-11.5,6.2-17.5,8.6
					c-8.4,3.3-15.6,0.2-22.8-5c-7.6-5.5-15.3-11.3-21.6-18.4c-3.1-3.5-5.3-7.3-7.9-11.1c-2.6-3.8-4-2.4-7.1-5.1
					c-1.7-1.5-3.7-2.7-5.1-4.5c-2.5-3.3-1.5-7.4-0.9-11.2c0.1-0.9,0.2-1.6,0.8-2.3c0.8-1.1,2.1-1.5,3.4-1.9
					C132.6,172.1,133.4,171.9,134.2,171.8z"/>
			</g>
			<g>
				<path class="st5" d="M209.2,231.7c-4.6,2-9.1,3.9-13.6,5.4c-6.7,2.3-14,4.7-20.5,2.1c-2.5-1-4.8-2.6-6.9-4.3
					c-10.4-7.8-20.5-15.9-30.5-24.3c2.9-6.3,6.7-12.1,11.2-17.3c1.3-1.4,2.8-2.9,4.6-3.2c2.8-0.4,5.1,2,7,4.2
					c3,3.5,6.1,7.1,9.1,10.6c1,1.1,2.1,2.4,3.6,2.5c1,0.1,1.9-0.3,2.8-0.7c16.7-7.9,29.1-17.8,43.1-29.7
					c6.2-5.3,12.7-10.6,20.4-12.7c16.6-4.5,30.1,14.1,19.8,29C247.6,210.2,228.4,223.1,209.2,231.7z"/>
			</g>
		</g>
		<g>
			<g>
				<g>
					<polygon class="st6" points="316.5,548.9 317,557.4 301.2,566.8 292.5,558.9 300.2,549.9 316.1,540.5 					"/>
				</g>
				<g>
					<polygon class="st7" points="327.7,292.5 329.2,318.1 302.4,431.3 317.2,546.2 301.2,550.5 255.7,412.7 254.6,371.1 
						265.1,285.5 					"/>
				</g>
			</g>
			<g>
				<g>
					<polygon class="st7" points="225.1,306.3 213.7,413.6 220.2,554.1 235.2,555.7 256.9,428.8 289.6,303.1 					"/>
				</g>
				<g>
					<polygon class="st6" points="235.3,553.8 234.5,562.2 217.4,569 210.1,559.8 219,552.2 					"/>
				</g>
			</g>
			<g>
				<path class="st5" d="M342.1,306.1c1.1,9.8,1.9,23-1.7,23.9c-0.7,0.2-1.4-0.1-2-0.4c-6.6-3-11.5-7.6-18-10.4
					c-6.8-3-14.5-4.2-21.9-4.9c-11.1-1-22.4-1.3-33.5-0.4c-8.8,0.7-17.5,2.3-26.1,3.8c-7.2,1.3-13.7,4.2-21.2,4.3
					c-7.6,0.2-15.3-1.5-22.1-5c-0.3-0.1-0.5-0.3-0.6-0.5c-0.1-0.3-0.1-0.6,0-0.9c1.2-4.5,1.9-9,4.4-12.9c2.8-4.3,4.6-9.7,6.4-14.5
					c3.9-10.1,7.4-20.5,9.8-31.1c3.8-14.4,8.3-28.5,11.9-42.9c2.5-10,4.7-20.1,8.4-29.7c2.9-7.5,8.3-18.6,15.7-22.5
					c2.5-1.3,5.3-1.7,8.1-2c8.4-1,16.8-2.1,25.2-3.1c3.1-0.4,6.3-0.7,9.2,0.3c4.4,1.6,7.1,5.9,9.6,10c11,18.2,18.7,38.2,23.9,59.1
					c2.7,10.9,5.3,21.8,7.5,32.9c2.5,12.3,4.5,24.7,5.9,37.2C341,297.6,341.6,301.4,342.1,306.1z"/>
			</g>
			<g>
				<path class="st8" d="M276.5,206.2c0.1,5,1.2,9.8,2.3,14.7c6.8,29.5,13.5,58.9,20.3,88.4c-22.7,1.9-45.3,3.9-68,5.8
					c-0.2-11.3-0.3-22.5-0.5-33.8c-0.1-7.2-0.2-14.5,0.6-21.6c1.4-11.6,5.2-22.7,8.9-33.7c7-20.4,13.9-40.7,20.9-61.1
					c0.4-1.1,0.8-2.2,1.6-3c0.9-1,2.3-1.4,3.6-1.8c6.4-1.8,13.6-3.4,20.2-3.1c2.2,6-2.9,17.2-4.6,23.1
					C279.5,188.5,276.3,197.1,276.5,206.2z"/>
			</g>
			<g>
				<g>
					<path class="st9" d="M268.6,164c4.7-0.7,9.3-1.3,14-2c-0.1-3.9-0.5-7.8-1.2-11.6c0.1,0.5,7.2-4.3,7.8-5.3
						c1.7-2.9,1.5-7.4,2-10.6c1.1-6.9,2-14.7-2-20.4c-4.1-5.9-12.1-7.3-19.1-6.8c-8.8,0.6-18.4,4.2-22.2,12.4
						c-3.5,7.4,2.6,17.3,4.7,24.7c1,3.6,2.5,7.7,6,8.9c1.8,0.7,3.9,0.4,5.6,1.4C267.2,156.5,267,160.9,268.6,164z"/>
				</g>
				<g>
					<path class="st7" d="M232.9,107.5c-1-5-1.9-10-2.9-14.9c-0.4-1.8-0.7-3.8-0.3-5.6c0.7-3,3.5-5.2,6.3-6.3
						c2.8-1.1,5.9-1.4,8.8-2.4c3.1-1,6-2.8,9.3-2.9c6.2-0.3,11.4,5.1,17.5,5.6c8.5,0.6,15.9-4.1,21.8,5.6c1.1,1.8,1.5,3.9,2.5,5.8
						c1.3,2.4,3.4,4.2,5.1,6.3c7.5,9.2,6.7,24.3-0.6,33.3c-3.5,4.4-4.8,8.2-10.1,10c2-5.4-3.1-25.7-10-27.3c-1.8-0.4-7,2.3-8.9,2.8
						c-4.3,1.1-8.5,2.2-12.5,4.3c-5.9,3.2-12.3,5.7-18.9,6.8c-0.8,0.1-1.8,0.3-2.5-0.2c-0.6-0.5-0.9-1.4-1-2.2
						C235.3,120,234.1,113.8,232.9,107.5z"/>
				</g>
			</g>
		</g>
		<g>
			<g>
				<g>
					<polygon class="st10" points="280.6,424.3 148.7,374 213.2,193.1 345.2,243.4 					"/>
					<polygon class="st11" points="161.3,370 163.3,370.7 278.5,418.8 336.5,246.6 330.5,246.1 					"/>
					<polygon class="st12" points="276.7,414 158.1,368.7 217.8,201.4 336.5,246.6 					"/>
					<polygon class="st13" points="217.4,200.5 302.7,233 190.9,274.2 					"/>
					<g>
						<polygon class="st14" points="301.4,237.9 249.9,218.2 251.7,213.3 303.2,232.9 						"/>
						<g>
							<path class="st15" d="M298,213.9l-0.8-0.3l0.2-0.6c1.9-5.2-1.4-11.3-7.2-13.5l-7.7-2.9c-5.8-2.2-12.1,0.2-13.9,5.4l-0.2,0.6
								l-0.8-0.3c-5.8-2.2-12.1,0.2-13.9,5.4l-3.8,10.6l51.5,19.6l3.8-10.6C307.1,222.1,303.9,216.1,298,213.9z M289.5,210.9
								l-13.6-5.2c-1.4-0.5-2.1-2.1-1.6-3.6c0.5-1.4,2.1-2.2,3.4-1.6l13.6,5.2c1.4,0.5,2.1,2.1,1.6,3.6
								C292.5,210.7,290.9,211.4,289.5,210.9z"/>
						</g>
					</g>
				</g>
				<g class="st16">
					<path class="st17" d="M234.3,260.8c-5.8-2.2-11.6-4.4-17.4-6.6c-0.5-0.2-1.1,0.1-1.2,0.6c-2.1,6-4.3,11.9-6.4,17.9
						c-0.2,0.5,0.1,1.1,0.6,1.3c5.8,2.2,11.6,4.4,17.4,6.6c0.3,0.1,0.5,0.1,0.7,0c0,0,0,0,0,0c0,0,0,0,0,0c0.2-0.1,0.4-0.3,0.5-0.5
						c2.1-6,4.3-11.9,6.4-17.9C235,261.6,234.8,261,234.3,260.8z M227,278.3c-5.2-2-10.4-4-15.6-5.9c1.9-5.3,3.8-10.7,5.7-16
						c5.2,2,10.4,4,15.6,5.9C230.8,267.6,228.9,273,227,278.3z"/>
					<path class="st17" d="M222.5,293.9c-5.8-2.2-11.6-4.4-17.4-6.6c-0.5-0.2-1.1,0.1-1.2,0.6c-2.1,6-4.3,11.9-6.4,17.9
						c-0.2,0.5,0.1,1.1,0.6,1.3c5.8,2.2,11.6,4.4,17.4,6.6c0.3,0.1,0.5,0.1,0.7,0c0,0,0,0,0,0c0,0,0,0,0,0c0.2-0.1,0.4-0.3,0.5-0.5
						c2.1-6,4.3-11.9,6.4-17.9C223.2,294.6,223,294.1,222.5,293.9z M215.2,311.4c-5.2-2-10.4-4-15.6-5.9c1.9-5.3,3.8-10.7,5.7-16
						c5.2,2,10.4,4,15.6,5.9C219,300.7,217.1,306.1,215.2,311.4z"/>
					<path class="st17" d="M210.7,327c-5.8-2.2-11.6-4.4-17.4-6.6c-0.5-0.2-1.1,0.1-1.2,0.6c-2.1,6-4.3,11.9-6.4,17.9
						c-0.2,0.5,0.1,1.1,0.6,1.3c5.8,2.2,11.6,4.4,17.4,6.6c0.3,0.1,0.5,0.1,0.7,0c0,0,0,0,0,0c0,0,0,0,0,0c0.2-0.1,0.4-0.3,0.5-0.5
						c2.1-6,4.3-11.9,6.4-17.9C211.4,327.7,211.2,327.1,210.7,327z M203.4,344.5c-5.2-2-10.4-4-15.6-5.9c1.9-5.3,3.8-10.7,5.7-16
						c5.2,2,10.4,4,15.6,5.9C207.2,333.8,205.3,339.2,203.4,344.5z"/>
				</g>
				<polygon class="st10" points="220.3,263.1 224.8,263.3 225.6,268.3 249.7,261.4 251.8,262.7 222.9,273 				"/>
				<polygon class="st10" points="206.8,296.5 211.2,296.7 212,301.6 236.2,294.8 238.2,296.1 209.3,306.3 				"/>
				<polygon class="st10" points="195.2,327.7 199.7,327.9 200.5,332.8 224.6,325.9 226.7,327.3 197.8,337.5 				"/>
				<polygon class="st18" points="277.5,370.9 216.1,347.4 219.3,338.5 280.7,361.9 				"/>
				<polygon class="st18" points="290,335.8 228.6,312.4 231.8,303.5 293.2,326.9 				"/>
				<polygon class="st18" points="302.5,300.8 241.1,277.4 244.3,268.4 305.7,291.8 				"/>
			</g>
		</g>
		<g>
			<path class="st9" d="M328.8,252.6c0.4,1.1,0.4,2.7-0.6,3.2c-0.6,0.3-1.4,0-2-0.1c-2.6-0.5-5.3,1.1-6.3,3.6
				c-1.2,2.9,0.2,6.5,2.5,8.5c2.4,2,5.5,2.8,8.6,3.1c1.9,0.2,4.1,0.1,5.5-1.3c0.7-0.7,1.2-1.7,1.5-2.6c1.9-4.9,3.5-11.2-0.2-15.6
				C334.8,247.9,326.1,245.1,328.8,252.6z"/>
			<path class="st5" d="M350.8,251.7c-0.4-0.5-0.8-1-1.3-1.4c-4.1-3.4-9.4-6.7-14.8-5c1.6,10.4,0.1,21.3-4.4,30.8
				c-0.4,0.7-0.7,1.6-0.4,2.4c0.6,1.4,5.1,2.4,6.4,2.5c5.9,0.3,12-2.8,14.6-7.3c1.5-2.6,1.8-5.6,2.1-8.5
				C353.4,260.8,353.6,255.3,350.8,251.7z"/>
		</g>
	</g>
</g>
</svg>
